ply
format ascii 1.0
element vertex 27
property float x
property float y
property float z
property uint8 red
property uint8 green
property uint8 blue
element edge 21
property int vertex1
property int vertex2
property uint8 red
property uint8 green
property uint8 blue
end_header
-1.444731 1.160964 -0.624855 255 255 255
1.524625 1.178865 -0.919478 255 255 255
-0.007446 1.328735 1.694587 255 255 255
0.737976 1.643212 1.016145 255 255 255
-1.282043 0.758294 -1.346010 255 255 255
0.701056 1.441943 1.330931 255 255 255
-0.010470 1.869697 -0.775387 255 255 255
-0.011687 2.147055 0.477610 255 255 255
1.963691 0.595094 0.762231 255 255 255
0.839636 1.820033 -0.196853 255 255 255
1.947584 0.000000 0.215306 255 255 255
1.969504 0.075793 -0.591975 255 255 255
1.867121 1.066331 -0.142203 255 255 255
-0.458618 1.668976 1.004926 255 255 255
-2.116227 0.000000 0.233949 255 255 255
-1.873836 0.485737 0.686028 255 255 255
-0.888108 1.510466 -1.300971 255 255 255
1.497614 1.221066 0.349950 255 255 255
-1.572982 1.182661 0.349580 255 255 255
-1.027504 1.548186 1.001859 255 255 255
-1.998113 0.600449 0.297551 255 255 255
-0.806560 1.884716 0.437425 255 255 255
1.886554 0.658091 0.294225 255 255 255
-0.011165 2.070660 -0.214056 255 255 255
-1.367834 0.974688 -1.041476 255 255 255
-0.008143 1.532660 1.338472 255 255 255
0.826576 1.942718 0.450680 255 255 255
0 4 0 0 0
0 6 0 0 0
1 11 0 0 0
3 26 0 0 0
5 25 0 0 0
6 0 0 0 0
6 7 0 0 0
7 2 0 0 0
7 17 0 0 0
7 18 0 0 0
7 12 0 0 0
8 22 0 0 0
9 23 0 0 0
12 1 0 0 0
13 21 0 0 0
15 20 0 0 0
16 24 0 0 0
17 1 0 0 0
17 10 0 0 0
18 14 0 0 0
19 21 0 0 0
