ply
format ascii 1.0
element vertex 118
property float x
property float y
property float z
property uint8 red
property uint8 green
property uint8 blue
element edge 1046
property int vertex1
property int vertex2
property uint8 red
property uint8 green
property uint8 blue
end_header
1.317457 0.794846 1.559622 255 255 255
1.414329 0.012171 -1.428045 255 255 255
1.967141 0.000973 -0.329600 255 255 255
1.316604 0.002649 -1.545391 255 255 255
-1.942593 0.010623 -0.563756 255 255 255
-1.815620 0.010557 -1.074889 255 255 255
0.633579 0.004370 -1.948568 255 255 255
-2.004900 0.010799 -0.316124 255 255 255
1.763886 0.708280 -0.468898 255 255 255
-1.971030 0.010664 0.382530 255 255 255
-0.462540 0.007416 2.101274 255 255 255
-2.141124 0.011486 -0.200468 255 255 255
1.728665 0.001719 -1.110523 255 255 255
1.350785 0.733969 -1.317229 255 255 255
-0.302217 0.006386 -1.930578 255 255 255
-1.859457 0.010600 -0.948096 255 255 255
0.787299 0.004251 -1.987665 255 255 255
-1.543823 0.009643 1.289407 255 255 255
-0.714228 0.007870 -1.994270 255 255 255
-0.845457 0.008327 1.969679 255 255 255
0.210651 0.729665 1.852417 255 255 255
1.605849 0.002124 1.317786 255 255 255
-2.096706 0.011228 0.068615 255 255 255
1.029843 0.003657 -1.872807 255 255 255
-0.950417 0.781964 1.744342 255 255 255
1.597465 0.737434 -1.024878 255 255 255
0.993940 0.003285 1.688427 255 255 255
-1.132220 0.008610 -1.671673 255 255 255
-1.809065 0.010261 0.860085 255 255 255
-0.185645 0.006438 2.040441 255 255 255
0.096522 0.763491 -1.947427 255 255 255
-1.704966 0.758034 0.878588 255 255 255
1.254666 0.003101 -1.726767 255 255 255
1.914186 0.001202 0.656216 255 255 255
-0.200592 0.006807 -2.177023 255 255 255
1.953296 0.758034 -0.051269 255 255 255
0.413806 0.795964 1.993058 255 255 255
0.782165 0.770321 1.812138 255 255 255
1.921306 0.001091 0.526627 255 255 255
0.593440 0.769540 1.843961 255 255 255
-1.598108 0.010084 -1.411707 255 255 255
0.679735 0.004227 1.899772 255 255 255
-2.186589 0.011707 -0.066320 255 255 255
-1.582103 0.009674 -1.229267 255 255 255
-0.357404 0.000000 -1.967706 255 255 255
-1.971473 0.011008 0.789210 255 255 255
1.995602 0.781303 -0.270044 255 255 255
2.063185 0.001095 -0.480340 255 255 255
1.932224 0.001475 -0.922751 255 255 255
-0.697041 0.007766 1.954850 255 255 255
1.132238 0.769933 1.619679 255 255 255
-0.570062 0.007331 -1.973288 255 255 255
-1.306054 0.009434 1.692284 255 255 255
-1.994096 0.010876 0.519222 255 255 255
-0.119500 0.790300 -2.012585 255 255 255
0.448370 0.799071 -1.994304 255 255 255
1.554337 0.721051 1.013543 255 255 255
-2.039296 0.011055 -0.454784 255 255 255
-1.415559 0.009265 -1.418790 255 255 255
1.922912 0.747581 0.125102 255 255 255
-2.185118 0.011741 0.246213 255 255 255
0.394941 0.005125 -2.071030 255 255 255
-1.423225 0.771681 -1.341440 255 255 255
1.764374 0.001532 -0.982932 255 255 255
-1.121151 0.008587 1.658932 255 255 255
-1.355510 0.798264 1.503193 255 255 255
0.988266 0.798273 -1.793012 255 255 255
2.032541 0.000956 -0.210676 255 255 255
-0.524086 0.746214 -1.825897 255 255 255
-0.061383 0.006561 2.194136 255 255 255
-1.105164 0.009071 1.880369 255 255 255
-1.786863 0.010327 0.992045 255 255 255
-0.447677 0.719040 1.775207 255 255 255
1.713693 0.001962 -1.259424 255 255 255
0.103075 0.005903 -2.128174 255 255 255
-1.583493 0.010239 1.501532 255 255 255
0.253168 0.005214 -2.003348 255 255 255
1.559864 0.002067 -1.304649 255 255 255
-1.618715 0.009813 1.187282 255 255 255
-1.977157 0.010897 0.650281 255 255 255
-0.426813 0.005832 -1.904172 255 255 255
-1.779829 0.010516 1.140390 255 255 255
0.073446 0.005966 2.102863 255 255 255
0.550141 0.004451 1.907633 255 255 255
0.874818 0.003795 -1.858463 255 255 255
0.008458 0.719947 1.837550 255 255 255
0.984723 0.003945 1.942187 255 255 255
2.051428 0.001071 0.426099 255 255 255
-1.677115 0.009981 -1.141338 255 255 255
-1.985436 0.790439 0.223954 255 255 255
1.645548 0.001821 1.149690 255 255 255
2.015241 0.001416 0.835447 255 255 255
0.335260 0.024716 2.110374 255 255 255
-0.993139 0.008853 1.962904 255 255 255
1.408897 0.708246 1.154467 255 255 255
-0.329627 0.007098 2.128642 255 255 255
-0.960228 0.008487 -1.893100 255 255 255
-2.019469 0.011167 -0.726827 255 255 255
0.778739 0.003844 1.809367 255 255 255
1.848470 0.743767 0.506057 255 255 255
1.301686 0.711018 1.282712 255 255 255
1.903237 0.791870 -0.734042 255 255 255
1.685935 0.001623 1.026890 255 255 255
2.075049 0.001013 0.296796 255 255 255
1.154016 0.003401 -1.818135 255 255 255
-0.247540 0.803239 2.032625 255 255 255
-1.907012 0.763718 -0.301049 255 255 255
-1.370520 0.009360 -1.558607 255 255 255
0.524393 0.004807 -2.041703 255 255 255
1.715638 0.747158 0.870447 255 255 255
-0.805460 0.007858 -1.870615 255 255 255
-1.064702 0.008671 -1.807345 255 255 255
1.879473 0.001090 -0.563873 255 255 255
-0.061899 0.006320 -2.134420 255 255 255
-1.333800 0.009571 -1.724641 255 255 255
-2.014369 0.011294 -0.871916 255 255 255
-0.569945 0.007426 1.985126 255 255 255
1.192981 0.715378 -1.397868 255 255 255
2 26 178 24 43
2 43 244 235 234
2 47 178 24 43
2 50 243 230 228
2 35 231 172 163
2 24 242 226 223
2 99 229 164 154
2 98 243 229 227
2 97 220 123 107
2 72 239 211 206
2 46 210 227 236
2 77 242 225 223
2 67 233 184 176
2 90 178 24 43
2 59 178 24 43
2 5 240 213 209
2 107 178 24 43
2 109 178 24 43
2 89 242 226 223
2 0 178 24 43
2 9 217 111 94
2 15 242 223 221
2 20 178 24 43
3 26 217 230 238
3 35 239 212 208
3 77 239 212 207
3 101 193 217 231
3 17 212 227 237
6 64 171 205 225
6 30 239 242 245
6 37 233 181 173
6 103 216 230 238
6 47 190 215 231
6 35 217 230 238
6 52 192 216 231
6 66 201 221 234
6 97 236 241 244
6 75 209 226 236
6 111 244 233 231
6 90 167 202 224
6 96 134 184 214
6 100 216 230 238
6 102 201 222 234
6 116 242 226 224
6 13 147 191 218
6 27 232 238 243
6 80 220 232 239
8 41 234 187 180
8 63 178 24 43
8 8 182 211 228
8 75 178 24 43
8 59 178 24 43
8 102 178 24 43
8 3 226 235 241
8 109 178 24 43
8 116 234 188 181
8 78 182 211 228
19 26 33 102 172
19 36 91 160 202
19 58 242 223 220
19 66 179 209 227
19 72 164 201 223
19 75 208 225 236
19 93 172 205 225
19 59 95 163 203
19 105 240 216 212
19 7 33 102 172
19 20 138 186 215
19 21 33 102 172
19 78 175 207 226
22 29 178 24 43
22 31 241 221 218
22 36 229 237 242
22 41 232 239 243
22 50 241 244 245
22 51 232 239 243
22 60 233 182 173
22 63 233 183 175
22 66 241 221 218
22 95 244 234 232
22 97 233 183 175
22 101 217 230 238
22 79 227 154 142
22 82 240 216 212
22 106 240 215 211
22 108 240 215 211
22 111 245 237 236
22 115 225 147 135
22 102 244 231 229
22 105 243 228 226
22 3 243 228 226
22 5 178 24 43
22 107 178 24 43
22 109 241 220 217
22 114 236 198 192
22 116 241 220 217
22 4 178 24 43
22 7 233 183 175
22 14 234 189 182
22 9 239 212 208
22 10 242 223 220
22 18 231 238 242
22 21 230 168 158
23 117 125 179 212
23 47 236 198 192
23 55 190 216 231
23 60 235 191 184
23 65 243 229 226
23 8 242 225 222
23 101 241 218 214
23 82 221 233 240
23 90 170 204 225
23 12 238 204 199
23 59 129 182 213
23 107 178 24 43
23 114 226 152 140
23 13 224 234 240
23 17 217 230 238
23 78 231 238 242
23 80 230 168 158
24 28 201 221 234
24 31 166 202 224
24 39 221 126 111
24 42 33 102 172
24 43 229 166 156
24 50 157 197 221
24 52 158 197 221
24 55 235 240 244
24 58 245 240 239
24 60 226 236 241
24 63 141 188 216
24 91 241 220 217
24 24 227 236 241
24 40 225 235 241
24 69 226 235 241
24 98 233 239 243
24 95 179 209 227
24 97 223 139 125
24 72 33 102 172
24 75 151 194 219
24 46 137 186 215
24 79 167 202 224
24 86 156 196 221
24 90 232 239 243
24 93 240 243 245
24 94 230 238 242
24 115 99 165 204
24 59 33 102 172
24 96 33 102 172
24 100 33 102 172
24 102 33 102 172
24 105 195 218 232
24 5 169 204 224
24 107 33 102 172
24 109 33 102 172
24 7 132 183 214
24 14 240 215 211
24 11 233 239 243
24 13 178 24 43
24 27 178 24 43
24 18 178 24 43
24 17 244 235 233
24 20 69 148 195
24 21 33 102 172
24 110 178 24 43
25 29 231 175 166
25 37 237 202 196
25 39 227 236 241
25 47 179 209 227
25 69 220 232 239
25 101 224 234 240
25 86 213 228 237
25 90 159 198 222
25 12 234 240 243
25 94 223 234 240
25 3 156 196 221
25 16 219 232 239
25 13 175 207 226
25 21 33 102 172
31 26 231 175 165
31 28 240 214 210
31 29 234 188 181
31 31 178 24 43
31 36 240 214 210
31 39 241 219 215
31 42 245 236 234
31 43 235 191 184
31 50 243 228 225
31 35 243 228 226
31 52 178 24 43
31 60 244 233 231
31 63 178 24 43
31 65 245 238 237
31 8 241 221 217
31 66 178 24 43
31 53 245 237 236
31 71 237 203 198
31 97 223 138 125
31 72 178 24 43
31 75 178 24 43
31 46 241 221 218
31 77 233 239 243
31 101 234 240 243
31 79 222 132 117
31 67 245 236 234
31 82 243 227 224
31 106 245 238 237
31 108 245 237 236
31 111 242 224 221
31 88 231 238 242
31 90 238 205 200
31 115 235 190 183
31 59 178 24 43
31 96 178 24 43
31 100 178 24 43
31 102 178 24 43
31 5 178 24 43
31 107 178 24 43
31 109 178 24 43
31 114 178 24 43
31 89 225 147 135
31 68 178 24 43
31 116 223 136 122
31 0 241 221 218
31 4 226 150 137
31 7 232 180 172
31 14 178 24 43
31 9 230 167 157
31 10 227 157 146
31 15 244 232 230
31 18 240 216 212
31 20 178 24 43
31 21 178 24 43
31 34 241 219 216
31 110 243 229 227
31 78 241 222 219
31 80 238 206 201
32 37 222 131 116
32 117 229 166 156
32 52 178 24 43
32 55 136 186 215
32 63 178 24 43
32 83 178 24 43
32 93 178 24 43
32 0 178 24 43
33 26 170 204 225
33 117 239 209 205
33 103 234 189 182
33 47 241 219 215
33 35 177 208 227
33 91 217 230 238
33 66 222 132 117
33 99 198 220 233
33 98 227 236 241
33 72 178 24 43
33 75 178 24 43
33 82 240 214 210
33 90 233 182 174
33 93 192 216 231
33 102 178 24 43
33 107 178 24 43
33 68 231 173 164
33 7 216 105 87
33 11 190 216 231
33 21 178 24 43
33 80 234 186 179
35 86 167 203 224
35 59 178 24 43
35 102 219 119 103
35 109 178 24 43
35 10 241 221 218
35 21 218 116 99
35 39 156 196 221
35 117 243 228 226
35 50 237 203 197
35 71 124 179 211
35 75 244 235 234
37 26 223 234 240
37 28 244 231 229
37 29 222 233 240
37 31 243 228 226
37 36 240 213 209
37 37 224 144 131
37 39 240 214 210
37 41 244 233 231
37 42 242 223 220
37 43 227 155 143
37 47 216 107 90
37 50 245 240 239
37 51 237 242 244
37 52 224 141 128
37 55 139 187 216
37 58 245 237 236
37 60 202 222 234
37 63 235 194 188
37 65 235 240 244
37 66 238 208 203
37 69 246 240 239
37 71 246 241 240
37 72 176 208 227
37 75 241 220 217
37 77 246 240 239
37 79 239 211 207
37 82 225 235 241
37 83 178 24 43
37 86 166 202 224
37 88 164 201 223
37 90 232 180 171
37 93 234 189 182
37 94 244 231 229
37 96 185 213 229
37 100 190 215 231
37 102 175 207 226
37 105 238 204 198
37 107 207 225 235
37 109 198 220 233
37 114 234 240 243
37 116 177 208 227
37 0 235 190 183
37 4 201 222 234
37 7 244 234 233
37 9 220 232 239
37 10 208 225 236
37 11 246 240 240
37 13 236 241 244
37 15 244 233 232
37 17 245 240 239
37 20 241 217 214
37 34 245 237 236
38 117 236 198 192
38 41 197 219 232
38 52 221 128 113
38 63 178 24 43
38 53 225 235 241
38 72 178 24 43
38 75 230 168 158
38 38 217 231 238
38 101 197 219 232
38 59 178 24 43
38 96 220 123 107
38 100 215 100 81
38 102 178 24 43
38 109 178 24 43
38 20 178 24 43
39 30 241 220 217
39 36 177 208 227
39 37 231 174 165
39 117 242 222 219
39 50 239 209 204
39 35 202 222 234
39 55 80 154 199
39 65 237 203 197
39 8 242 225 223
39 66 236 195 189
39 46 152 194 220
39 101 243 229 227
39 94 237 202 196
39 59 218 113 96
39 100 226 150 137
39 105 164 201 223
39 109 231 176 167
39 68 229 163 153
39 0 222 131 116
39 13 236 198 191
39 20 228 160 149
43 36 205 224 235
43 43 230 169 159
43 35 194 218 232
43 52 178 24 43
43 40 214 229 238
43 79 208 225 236
43 88 223 138 124
43 12 205 224 235
43 59 178 24 43
43 18 224 234 240
43 80 174 206 226
44 52 225 145 132
44 113 199 220 233
44 14 237 200 194
45 28 233 182 174
45 64 211 227 237
45 31 231 174 165
45 69 241 221 217
45 111 227 156 145
45 0 229 163 152
45 11 237 202 196
45 17 233 184 176
48 37 178 24 43
48 117 236 198 192
48 51 196 219 232
48 52 178 24 43
48 55 177 208 227
48 63 178 24 43
48 66 235 193 186
48 83 178 24 43
48 90 218 115 98
48 93 178 24 43
48 0 220 124 109
49 31 178 24 43
49 52 220 124 109
49 55 183 212 229
49 65 241 219 215
49 113 239 208 204
49 59 178 24 43
49 102 178 24 43
49 5 241 220 216
49 109 178 24 43
49 68 216 107 90
49 116 228 160 149
49 15 203 223 234
50 117 178 24 43
50 51 239 210 205
50 60 219 120 104
50 61 240 216 213
50 97 226 150 137
50 79 228 161 150
50 67 204 223 235
50 102 219 120 104
50 0 233 182 174
54 37 238 206 201
54 39 240 216 212
54 51 241 222 218
54 58 239 210 206
54 34 242 226 223
56 64 169 204 225
56 37 218 114 98
56 39 196 219 232
56 117 133 184 214
56 47 181 210 228
56 60 230 237 242
56 66 166 202 224
56 72 245 238 237
56 82 217 230 238
56 90 100 165 205
56 94 228 160 149
56 115 221 233 240
56 96 33 102 172
56 100 219 232 239
56 102 223 234 240
56 3 75 151 197
56 109 209 226 236
56 0 242 224 221
56 13 132 183 214
56 21 178 24 43
57 35 245 239 238
57 72 229 165 155
57 96 235 194 187
57 107 215 229 238
57 89 243 227 224
57 0 228 162 151
57 4 178 24 43
57 7 221 126 111
61 66 216 106 88
61 72 188 214 230
61 75 164 201 223
61 101 186 213 229
61 108 178 24 43
61 18 123 178 211
61 34 185 213 229
62 31 178 24 43
62 39 228 162 152
62 43 237 202 197
62 50 241 221 217
62 35 234 187 180
62 63 178 24 43
62 40 239 210 205
62 66 178 24 43
62 71 238 206 200
62 97 232 177 168
62 72 178 24 43
62 75 178 24 43
62 101 199 220 233
62 79 236 196 190
62 90 238 204 199
62 115 178 24 43
62 59 178 24 43
62 96 226 150 138
62 102 178 24 43
62 5 178 24 43
62 107 178 24 43
62 109 178 24 43
62 114 178 24 43
62 68 178 24 43
62 116 240 217 213
62 0 229 167 157
62 4 227 155 144
62 14 178 24 43
62 11 243 227 225
62 18 231 172 163
62 20 178 24 43
62 80 235 193 187
63 37 227 236 241
63 117 229 166 156
63 55 242 223 220
63 66 240 214 210
63 69 231 238 242
63 95 229 237 242
63 46 185 212 229
63 101 231 238 242
63 113 225 235 241
63 83 219 232 239
63 12 230 238 242
63 3 203 223 234
63 107 243 227 225
63 16 234 240 243
63 21 229 166 155
63 78 244 234 232
67 28 204 223 235
67 31 212 227 237
67 65 211 227 237
67 66 241 219 215
67 46 192 216 231
67 79 204 223 234
67 100 175 207 226
67 102 142 189 217
67 109 144 190 217
67 14 240 215 211
67 13 178 24 43
67 15 234 187 179
67 21 161 199 222
68 29 159 198 221
68 64 237 202 197
68 31 217 108 91
68 36 226 152 140
68 39 225 144 131
68 117 178 24 43
68 43 233 184 176
68 51 236 198 192
68 97 178 24 43
68 72 178 24 43
68 75 178 24 43
68 101 182 211 228
68 86 137 186 215
68 96 178 24 43
68 116 178 24 43
68 7 218 112 95
68 9 178 24 43
68 15 178 24 43
68 27 221 127 112
68 18 178 24 43
68 21 178 24 43
68 34 228 161 150
68 110 216 106 88
68 80 178 24 43
69 29 178 24 43
69 60 178 24 43
69 66 178 24 43
69 79 178 24 43
69 86 241 219 216
69 88 124 179 211
69 115 178 24 43
69 5 178 24 43
69 107 178 24 43
69 4 178 24 43
70 26 194 217 232
70 64 168 203 224
70 52 234 186 179
70 72 204 223 235
70 93 241 221 217
70 105 203 222 234
70 3 155 196 220
70 116 158 198 221
70 13 240 214 209
72 26 220 124 109
72 28 227 156 145
72 29 231 175 166
72 31 178 24 43
72 39 240 215 211
72 42 243 229 227
72 43 242 224 221
72 50 243 227 225
72 51 240 243 245
72 35 239 210 205
72 52 178 24 43
72 60 237 203 197
72 63 178 24 43
72 40 236 197 191
72 8 227 157 146
72 66 178 24 43
72 53 245 236 235
72 71 237 203 198
72 97 233 184 176
72 72 178 24 43
72 75 178 24 43
72 101 228 237 242
72 79 227 155 143
72 67 242 224 221
72 82 233 183 175
72 83 216 105 87
72 106 240 213 209
72 108 243 227 225
72 111 237 203 197
72 86 240 214 210
72 90 217 109 92
72 115 241 218 214
72 59 178 24 43
72 96 178 24 43
72 100 178 24 43
72 102 178 24 43
72 5 221 129 115
72 107 178 24 43
72 109 178 24 43
72 114 178 24 43
72 89 178 24 43
72 68 178 24 43
72 116 178 24 43
72 0 236 196 189
72 4 178 24 43
72 7 178 24 43
72 14 178 24 43
72 9 232 180 171
72 10 224 141 128
72 15 244 235 233
72 18 239 211 206
72 17 245 238 237
72 20 178 24 43
72 21 178 24 43
72 78 232 178 170
72 80 227 156 145
73 36 228 161 151
73 66 238 204 199
73 61 239 209 204
73 88 178 24 43
73 59 178 24 43
73 96 241 217 214
73 105 210 226 236
73 3 33 102 172
73 109 236 198 192
73 89 238 206 201
73 0 178 24 43
73 16 240 216 212
73 21 227 155 144
74 64 191 216 231
74 36 229 166 156
74 8 243 227 225
74 66 236 196 190
74 72 233 185 177
74 101 243 228 225
74 111 226 150 138
74 12 222 233 240
74 94 236 198 192
74 96 217 231 238
74 14 232 177 168
74 13 170 204 225
75 31 178 24 43
75 52 229 166 156
75 63 178 24 43
75 66 178 24 43
75 97 224 141 127
75 72 178 24 43
75 75 178 24 43
75 82 234 188 180
75 93 219 232 239
75 59 178 24 43
75 96 178 24 43
75 100 178 24 43
75 102 178 24 43
75 109 178 24 43
75 89 178 24 43
75 68 178 24 43
75 9 228 158 147
75 15 201 222 234
75 27 200 221 233
75 17 211 227 237
75 20 178 24 43
75 21 178 24 43
75 34 238 206 201
76 28 238 204 198
76 31 178 24 43
76 37 170 204 225
76 117 198 220 233
76 43 229 237 242
76 50 217 109 92
76 51 234 187 180
76 35 178 24 43
76 52 178 24 43
76 66 222 135 121
76 61 214 97 78
76 95 224 144 131
76 101 33 102 172
76 113 239 212 207
76 108 178 24 43
76 115 178 24 43
76 5 238 207 202
76 107 178 24 43
76 16 227 153 142
76 14 88 159 201
76 9 178 24 43
79 31 178 24 43
79 50 178 24 43
79 35 178 24 43
79 52 178 24 43
79 66 225 145 132
79 53 235 240 243
79 101 176 208 226
79 108 178 24 43
79 115 227 154 143
79 68 178 24 43
79 116 218 112 95
79 9 217 110 92
79 27 225 145 132
81 28 234 240 243
81 29 178 24 43
81 31 240 217 213
81 30 245 239 238
81 43 243 245 246
81 35 241 221 217
81 60 231 172 162
81 63 232 178 170
81 40 244 232 230
81 69 236 196 190
81 97 178 24 43
81 72 184 212 229
81 75 186 213 229
81 46 228 236 241
81 101 201 222 234
81 79 219 120 104
81 82 238 204 199
81 83 231 238 242
81 106 241 220 216
81 88 222 233 240
81 115 222 132 117
81 59 175 207 226
81 100 195 218 232
81 102 222 233 240
81 105 238 204 199
81 5 178 24 43
81 107 178 24 43
81 114 238 204 199
81 68 233 239 243
81 116 236 198 192
81 0 226 236 241
81 4 178 24 43
81 7 219 120 104
81 10 238 205 200
81 21 178 24 43
81 78 246 244 243
81 80 244 233 232
84 47 166 202 224
84 50 245 238 236
84 52 239 211 207
84 66 159 198 221
84 97 245 236 235
84 46 198 220 233
84 77 238 205 200
84 114 227 155 143
84 16 238 205 200
84 18 243 230 227
84 20 242 226 223
85 64 244 232 230
85 37 178 24 43
85 39 214 228 237
85 43 222 133 118
85 47 232 177 168
85 60 207 225 236
85 75 234 186 178
85 46 235 192 185
85 101 240 214 210
85 79 241 221 217
85 82 183 212 229
85 83 216 106 88
85 106 239 212 208
85 111 240 217 213
85 105 178 24 43
85 20 225 147 135
86 26 237 203 198
86 30 240 213 209
86 36 147 192 218
86 43 233 183 175
86 83 228 161 150
86 106 236 198 192
86 108 212 227 237
86 86 239 211 207
86 12 243 230 228
86 0 231 172 163
86 21 133 184 214
87 26 228 161 150
87 29 235 191 184
87 31 226 150 138
87 117 176 208 227
87 103 238 204 198
87 52 221 128 113
87 63 178 24 43
87 66 178 24 43
87 72 225 149 136
87 46 159 198 222
87 38 242 225 222
87 79 216 106 89
87 82 231 174 165
87 83 184 212 229
87 59 178 24 43
87 96 219 118 102
87 100 178 24 43
87 5 178 24 43
87 107 216 106 88
87 114 224 140 127
87 89 217 110 93
87 68 178 24 43
87 116 227 157 146
87 7 178 24 43
87 14 178 24 43
87 13 140 187 216
87 27 225 235 241
87 20 178 24 43
87 21 178 24 43
89 36 241 221 217
89 39 237 200 194
89 41 178 24 43
89 43 172 206 225
89 51 203 223 234
89 60 157 197 221
89 65 241 219 215
89 97 178 24 43
89 101 196 219 232
89 106 178 24 43
89 108 166 202 223
89 93 242 225 223
89 115 33 102 172
89 105 155 196 220
89 5 33 102 172
89 107 33 102 172
89 7 178 24 43
89 14 168 203 224
89 18 157 197 221
89 21 178 24 43
89 110 178 24 43
89 78 238 204 198
90 64 238 208 203
90 50 195 218 232
90 38 241 221 218
90 59 178 24 43
90 96 233 182 174
90 100 228 161 150
90 102 227 156 145
90 18 216 230 238
90 21 143 189 217
92 95 153 195 220
92 77 112 172 208
92 96 147 192 218
94 37 238 204 199
94 39 233 184 176
94 42 240 217 213
94 52 178 24 43
94 55 204 223 235
94 91 243 231 229
94 71 235 192 185
94 97 231 172 162
94 72 229 163 152
94 75 223 135 121
94 46 240 216 212
94 82 241 222 218
94 83 233 181 173
94 88 219 119 103
94 94 218 231 239
94 59 178 24 43
94 100 239 212 207
94 102 226 152 140
94 109 234 185 178
94 89 239 212 208
94 116 212 227 237
94 0 222 134 120
94 9 228 237 242
94 17 208 225 236
94 20 223 138 125
94 21 235 193 186
95 29 180 210 228
95 31 178 24 43
95 50 178 24 43
95 51 233 181 173
95 35 178 24 43
95 52 178 24 43
95 91 178 24 43
95 66 228 160 149
95 99 234 190 183
95 67 178 24 43
95 113 226 235 241
95 93 226 235 241
95 12 218 231 239
95 105 207 225 235
95 89 222 233 240
95 68 220 122 106
95 116 235 190 183
95 0 200 221 233
95 16 231 172 162
95 10 230 168 158
98 29 215 229 238
98 117 236 195 188
98 41 208 226 236
98 96 238 206 200
99 29 150 193 219
99 64 178 24 43
99 31 178 24 43
99 30 225 235 241
99 39 220 123 107
99 103 190 215 231
99 52 231 172 162
99 91 243 228 226
99 66 237 200 194
99 97 178 24 43
99 72 178 24 43
99 75 178 24 43
99 77 235 240 243
99 38 227 236 241
99 101 165 201 223
99 67 225 148 135
99 82 224 234 240
99 59 178 24 43
99 105 228 237 242
99 3 217 230 238
99 109 226 153 141
99 116 225 149 136
99 10 178 24 43
99 15 178 24 43
99 27 178 24 43
99 17 231 238 242
99 21 178 24 43
99 110 225 146 133
104 64 221 126 111
104 36 223 139 125
104 42 199 220 233
104 43 242 222 219
104 35 211 227 236
104 55 194 218 232
104 65 241 221 217
104 66 238 204 199
104 53 222 233 240
104 46 220 121 105
104 67 238 208 203
104 113 218 231 239
104 88 202 222 234
104 59 178 24 43
104 102 233 182 174
104 107 178 24 43
104 109 178 24 43
104 9 223 139 125
104 17 239 212 208
104 20 178 24 43
104 21 178 24 43
106 39 238 205 200
106 117 234 185 178
106 47 227 155 144
106 51 238 205 200
106 60 225 148 136
106 65 231 238 243
106 40 203 223 234
106 75 118 175 210
106 38 224 234 240
106 113 171 205 225
106 82 215 229 238
106 106 222 134 119
106 108 237 202 196
106 111 230 237 242
106 88 171 205 225
106 96 155 196 220
106 100 172 205 225
106 105 220 126 110
106 116 193 217 232
106 14 192 216 231
106 15 160 199 222
106 27 222 133 118
106 21 227 155 143
106 110 178 24 43
106 80 193 217 231
108 29 178 24 43
108 31 224 141 127
108 30 242 226 224
108 36 214 229 237
108 37 242 225 222
108 117 173 206 226
108 42 156 196 221
108 43 243 231 229
108 51 223 234 240
108 35 241 220 217
108 52 244 231 229
108 55 197 219 232
108 60 227 154 142
108 63 225 146 133
108 8 238 204 199
108 66 178 24 43
108 99 246 241 240
108 69 226 153 141
108 97 244 232 230
108 72 242 223 220
108 46 200 221 233
108 101 221 232 239
108 79 178 24 43
108 113 242 226 223
108 82 229 164 154
108 106 193 217 231
108 111 243 227 224
108 1 245 238 237
108 90 243 228 226
108 115 178 24 43
108 96 156 197 221
108 100 216 230 238
108 5 178 24 43
108 107 178 24 43
108 114 226 152 140
108 68 218 231 238
108 116 228 160 150
108 0 231 238 242
108 16 245 237 236
108 4 178 24 43
108 7 217 112 95
108 14 223 138 124
108 10 239 212 207
108 15 204 223 235
108 27 219 231 239
108 21 178 24 43
108 34 239 210 206
108 80 241 221 218
112 26 223 233 240
112 64 244 232 230
112 31 241 222 219
112 47 239 210 206
112 55 219 120 104
112 63 217 110 93
112 8 160 199 222
112 72 236 198 192
112 75 232 180 171
112 111 207 225 235
112 88 226 152 140
112 12 242 224 221
112 59 178 24 43
112 102 178 24 43
112 5 174 206 226
112 109 216 103 85
112 7 234 186 179
112 14 236 195 189
112 17 239 212 207
112 20 218 115 99
112 21 178 24 43
112 110 243 228 225
116 29 147 191 218
116 99 214 229 237
116 72 33 102 172
116 46 229 165 155
116 38 218 231 239
116 106 229 164 153
116 88 228 159 148
116 93 226 235 241
116 0 181 211 228
116 4 178 24 43
116 9 131 183 214
116 13 226 235 241
116 21 178 24 43
