ply
format ascii 1.0
element vertex 21
property float x
property float y
property float z
property uint8 red
property uint8 green
property uint8 blue
element edge 75
property int vertex1
property int vertex2
property uint8 red
property uint8 green
property uint8 blue
end_header
1.571399 0.000000 -0.118220 198 219 239
1.178368 0.866195 0.176835 198 219 239
1.587238 0.005118 0.141101 198 219 239
1.373182 0.060617 0.216930 198 219 239
1.349820 0.084316 -0.244751 198 219 239
1.191736 0.559469 -0.336753 198 219 239
1.294431 0.333376 0.346133 198 219 239
1.124580 0.690188 0.309515 198 219 239
1.162274 0.816292 -0.182603 198 219 239
-0.891853 0.883257 0.510883 252 187 161
-0.833742 1.163096 -0.571958 252 187 161
-1.490541 0.003333 0.051090 252 187 161
-1.462029 0.005016 -0.225068 252 187 161
-0.713639 1.187348 -0.167867 252 187 161
-0.749657 1.172162 0.275327 252 187 161
-1.012279 0.801214 -0.693025 252 187 161
-1.470838 0.002712 0.461931 252 187 161
-1.369388 0.154718 -0.498157 252 187 161
-1.361395 0.525113 0.488365 252 187 161
-1.171259 0.777011 0.725255 252 187 161
-1.365838 0.003092 0.269552 252 187 161
0 0 8 69 148
0 2 8 69 148
0 7 8 69 148
0 4 8 69 148
0 5 8 69 148
0 6 8 69 148
1 2 8 69 148
1 4 8 69 148
1 5 8 69 148
1 6 8 69 148
2 2 8 69 148
2 4 8 69 148
2 5 8 69 148
2 6 8 69 148
3 5 8 69 148
3 6 8 69 148
4 5 8 69 148
5 4 8 69 148
5 5 8 69 148
5 6 8 69 148
5 2 8 69 148
5 7 8 69 148
6 2 8 69 148
6 4 8 69 148
6 5 8 69 148
6 6 8 69 148
8 2 8 69 148
8 5 8 69 148
8 6 8 69 148
9 20 153 0 13
9 18 153 0 13
9 17 153 0 13
9 15 153 0 13
9 13 153 0 13
9 14 153 0 13
10 18 153 0 13
10 17 153 0 13
11 18 153 0 13
11 17 153 0 13
11 15 153 0 13
12 17 153 0 13
12 15 153 0 13
12 13 153 0 13
12 18 153 0 13
13 8 82 82 82
13 18 153 0 13
13 17 153 0 13
14 14 153 0 13
14 18 153 0 13
14 17 153 0 13
14 15 153 0 13
14 13 153 0 13
15 18 153 0 13
15 17 153 0 13
15 15 153 0 13
15 13 153 0 13
15 14 153 0 13
16 18 153 0 13
17 18 153 0 13
17 17 153 0 13
17 15 153 0 13
17 13 153 0 13
17 14 153 0 13
18 18 153 0 13
18 17 153 0 13
18 15 153 0 13
18 13 153 0 13
18 14 153 0 13
19 18 153 0 13
19 13 153 0 13
20 17 153 0 13
20 15 153 0 13
20 13 153 0 13
20 14 153 0 13
20 18 153 0 13
