ply
format ascii 1.0
element vertex 27
property float x
property float y
property float z
property uint8 red
property uint8 green
property uint8 blue
element edge 129
property int vertex1
property int vertex2
property uint8 red
property uint8 green
property uint8 blue
end_header
0.137734 0.821674 0.509382 252 187 161
0.923665 0.018464 -0.074674 252 187 161
0.643185 0.569353 -0.043402 252 187 161
0.785341 0.242841 0.458782 252 187 161
0.861548 0.108611 0.293561 252 187 161
0.803102 0.153644 0.529316 252 187 161
0.596841 0.565425 0.566676 252 187 161
-0.008078 0.874728 0.237896 252 187 161
-0.009869 0.843988 -0.432703 252 187 161
0.809078 0.052584 -0.327345 252 187 161
0.841737 0.161687 -0.579552 252 187 161
0.163378 0.556638 0.649338 252 187 161
-0.062726 1.093805 -0.052071 252 187 161
0.848689 0.052797 0.106895 252 187 161
0.158034 0.628521 -0.633894 252 187 161
0.593405 0.290313 0.562706 252 187 161
0.408217 0.421482 -0.619324 252 187 161
-0.712671 0.713527 -0.046685 198 219 239
-0.879949 0.020017 -0.026237 198 219 239
-0.597516 0.592941 -0.344944 198 219 239
-1.062031 -0.000000 -0.265862 198 219 239
-0.927894 0.327423 0.163226 198 219 239
-0.812757 0.487470 -0.504251 198 219 239
-1.087489 0.048695 0.081105 198 219 239
-1.010728 0.145488 -0.401864 198 219 239
-0.990945 0.360086 -0.134120 198 219 239
-0.717712 0.560363 0.126725 198 219 239
0 6 153 0 13
0 8 153 0 13
0 14 153 0 13
0 16 153 0 13
0 2 153 0 13
0 4 153 0 13
0 9 153 0 13
1 6 153 0 13
1 8 153 0 13
1 9 153 0 13
2 6 153 0 13
2 8 153 0 13
3 16 153 0 13
3 0 153 0 13
3 2 153 0 13
3 4 153 0 13
3 5 153 0 13
3 9 153 0 13
3 6 153 0 13
3 8 153 0 13
3 10 153 0 13
3 14 153 0 13
4 16 153 0 13
4 2 153 0 13
4 4 153 0 13
4 9 153 0 13
4 6 153 0 13
4 8 153 0 13
4 14 153 0 13
6 6 153 0 13
6 8 153 0 13
6 14 153 0 13
6 16 153 0 13
6 2 153 0 13
6 4 153 0 13
6 9 153 0 13
7 6 153 0 13
7 8 153 0 13
7 16 153 0 13
7 9 153 0 13
8 6 153 0 13
8 8 153 0 13
8 14 153 0 13
8 16 153 0 13
8 2 153 0 13
8 4 153 0 13
8 9 153 0 13
9 6 153 0 13
9 8 153 0 13
9 14 153 0 13
9 16 153 0 13
9 2 153 0 13
9 4 153 0 13
9 9 153 0 13
10 8 153 0 13
10 14 153 0 13
10 16 153 0 13
10 2 153 0 13
10 4 153 0 13
10 9 153 0 13
10 6 153 0 13
11 6 153 0 13
12 6 153 0 13
12 8 153 0 13
12 14 153 0 13
12 16 153 0 13
12 2 153 0 13
12 9 153 0 13
13 6 153 0 13
13 8 153 0 13
13 14 153 0 13
13 16 153 0 13
13 2 153 0 13
13 4 153 0 13
13 9 153 0 13
14 6 153 0 13
14 8 153 0 13
14 14 153 0 13
14 16 153 0 13
14 2 153 0 13
14 4 153 0 13
14 9 153 0 13
15 6 153 0 13
15 2 153 0 13
16 6 153 0 13
16 8 153 0 13
16 14 153 0 13
16 16 153 0 13
16 2 153 0 13
16 4 153 0 13
16 9 153 0 13
17 12 132 132 132
17 17 8 69 148
17 22 8 69 148
17 26 8 69 148
17 18 8 69 148
17 19 8 69 148
17 21 8 69 148
17 25 8 69 148
18 21 8 69 148
19 22 8 69 148
19 21 8 69 148
19 25 8 69 148
20 19 8 69 148
20 21 8 69 148
20 25 8 69 148
20 22 8 69 148
20 18 8 69 148
21 18 8 69 148
21 19 8 69 148
21 21 8 69 148
21 25 8 69 148
21 22 8 69 148
21 26 8 69 148
22 22 8 69 148
22 18 8 69 148
22 19 8 69 148
22 21 8 69 148
22 25 8 69 148
23 21 8 69 148
23 25 8 69 148
24 22 8 69 148
24 21 8 69 148
24 25 8 69 148
25 22 8 69 148
25 18 8 69 148
25 19 8 69 148
25 21 8 69 148
25 25 8 69 148
