ply
format ascii 1.0
element vertex 4
property float x
property float y
property float z
property uint8 red
property uint8 green
property uint8 blue
element edge 6
property int vertex1
property int vertex2
property uint8 red
property uint8 green
property uint8 blue
end_header
1.741781 0.000000 -0.928950 137 208 245
-1.288195 0.851232 -1.294939 137 208 245
1.740404 0.299369 1.038717 137 208 245
-1.735144 0.000000 0.925410 137 208 245
0 3 132 132 132
1 3 132 132 132
1 0 132 132 132
2 3 132 132 132
2 0 132 132 132
2 1 132 132 132
