ply
format ascii 1.0
element vertex 140
property float x
property float y
property float z
property uint8 red
property uint8 green
property uint8 blue
element edge 439
property int vertex1
property int vertex2
property uint8 red
property uint8 green
property uint8 blue
end_header
-1.381081 1.332011 0.820414 137 208 245
-1.496612 1.488029 -0.015291 137 208 245
-1.221826 1.664144 0.095854 137 208 245
-1.682534 0.766218 0.953460 137 208 245
-1.736645 0.609973 0.690711 137 208 245
1.093185 1.422506 -1.214132 137 208 245
-1.519729 1.037860 -0.859000 137 208 245
-1.551710 1.168324 -0.603614 137 208 245
0.361266 2.009887 -0.581277 137 208 245
0.907953 1.926352 -0.263757 137 208 245
1.426053 1.198224 0.837670 137 208 245
-0.960580 1.800656 -0.137655 137 208 245
-1.820728 1.084604 -0.488873 137 208 245
-0.077068 1.858385 -0.710223 137 208 245
-1.834911 0.790263 -0.547432 137 208 245
-1.791212 0.162818 -0.803987 137 208 245
-1.773611 0.342259 -1.176217 137 208 245
-1.023511 1.870185 0.273045 137 208 245
-1.815865 0.820901 -0.714341 137 208 245
-1.076600 1.615610 -0.467978 137 208 245
-0.041370 1.158243 -1.721130 137 208 245
-0.680791 1.539520 -1.300147 137 208 245
-1.686913 1.179971 -0.427174 137 208 245
-0.730613 1.795627 -0.614154 137 208 245
-0.312553 1.426798 -1.422223 137 208 245
-1.172779 0.855925 -1.613171 137 208 245
-1.718727 0.830133 0.657665 137 208 245
-2.098038 0.369672 0.031048 137 208 245
-1.528894 0.692020 -1.342456 137 208 245
-2.025081 0.435577 -0.583586 137 208 245
-2.055313 0.409277 -0.267116 137 208 245
-1.928633 0.103816 -0.318317 137 208 245
1.404100 1.412302 0.628728 137 208 245
-1.808934 0.821526 0.190961 137 208 245
1.451007 1.161981 1.171587 137 208 245
1.101897 1.694095 0.247083 137 208 245
1.732190 1.023103 0.027527 137 208 245
-1.337805 1.149741 -1.088139 137 208 245
-0.491270 1.667289 -1.028486 137 208 245
-0.870041 1.577960 -0.873350 137 208 245
-1.547346 1.350553 0.594738 137 208 245
-0.100125 1.730395 1.042734 137 208 245
0.578941 1.094746 -1.683984 137 208 245
0.094643 1.760348 -1.167610 137 208 245
-1.256119 1.593121 0.228317 137 208 245
-0.273482 2.123546 -0.030846 137 208 245
0.626275 1.853010 0.499897 137 208 245
0.646620 1.469262 1.298935 137 208 245
-0.699919 1.820169 0.981693 137 208 245
0.378124 1.441941 1.398435 137 208 245
2.016085 0.000000 0.760530 137 208 245
1.509101 1.447632 0.133207 137 208 245
0.645051 1.975298 -0.071575 137 208 245
-0.108220 1.479643 -1.334697 137 208 245
-0.230044 1.606835 -1.137745 137 208 245
0.153677 1.465128 -1.603483 137 208 245
0.330255 1.582696 1.257320 137 208 245
-0.498532 1.965805 -0.135634 137 208 245
-0.024581 1.926567 0.965418 137 208 245
-0.677455 2.052320 0.326776 137 208 245
-2.079049 0.109301 0.378216 137 208 245
-1.999042 0.773862 -0.280945 137 208 245
1.856243 0.622099 0.030022 137 208 245
1.905936 0.527342 -0.262092 137 208 245
1.528496 0.806079 -1.143252 137 208 245
1.438391 0.877996 -1.134042 137 208 245
1.140814 1.380683 -0.944262 137 208 245
0.734568 1.449885 -1.279314 137 208 245
1.941054 0.605270 -0.491161 137 208 245
0.408364 1.277801 -1.638379 137 208 245
0.720230 1.006031 -1.792357 137 208 245
0.917703 1.214982 -1.465406 137 208 245
1.205832 0.755106 -1.393937 137 208 245
0.668787 1.666741 0.786944 137 208 245
-0.406718 2.094169 0.482630 137 208 245
-0.475409 1.840846 0.739592 137 208 245
-1.460350 1.475706 0.553969 137 208 245
-1.278252 0.844935 -1.251489 137 208 245
-0.911858 1.868275 -0.702529 137 208 245
1.754021 0.658720 0.815290 137 208 245
0.893857 1.539602 1.277761 137 208 245
1.699785 0.603818 -1.120756 137 208 245
1.874329 0.562781 -0.696411 137 208 245
1.831627 0.910061 0.256553 137 208 245
1.761673 1.094369 0.681438 137 208 245
0.049548 1.940501 -0.306442 137 208 245
0.319211 1.679980 -1.038635 137 208 245
-0.126783 1.581469 1.258491 137 208 245
1.752596 0.256026 0.924176 137 208 245
1.408132 1.373388 -0.590842 137 208 245
1.025062 1.064177 -1.502829 137 208 245
0.646744 1.601167 -1.184619 137 208 245
0.103985 1.934480 0.288499 137 208 245
1.656131 0.120993 1.274047 137 208 245
1.904262 1.065183 0.246747 137 208 245
1.920749 0.759444 0.051881 137 208 245
0.265904 1.992403 0.578921 137 208 245
1.065052 1.682279 0.652554 137 208 245
-0.211658 2.009400 0.264670 137 208 245
0.593422 1.957987 0.671015 137 208 245
-0.304906 1.963913 -0.453371 137 208 245
-0.254827 2.056942 -0.722351 137 208 245
1.117325 1.179652 1.147844 137 208 245
0.014021 1.809901 0.730923 137 208 245
-0.489246 1.814002 0.901074 137 208 245
1.330752 1.564179 0.219393 137 208 245
0.806053 1.189045 1.369823 137 208 245
0.094428 1.602884 1.295949 137 208 245
0.194311 1.313760 -1.744353 137 208 245
0.508955 1.686505 -1.261126 137 208 245
1.101034 0.932872 -1.442662 137 208 245
0.920834 1.638200 -1.127247 137 208 245
1.791545 1.121751 -0.525987 137 208 245
1.440150 1.463336 -0.456394 137 208 245
0.581531 1.930462 -0.490814 137 208 245
1.684281 0.573206 -0.895700 137 208 245
1.698047 0.900040 -0.651430 137 208 245
1.823223 0.862878 -0.223409 137 208 245
1.735850 1.022671 -0.743646 137 208 245
1.939530 0.766132 -0.397782 137 208 245
1.676198 0.725621 -0.786933 137 208 245
-1.259745 1.101372 1.130974 137 208 245
-0.929899 1.900146 0.556532 137 208 245
0.601741 1.925359 0.870883 137 208 245
1.160364 1.398289 1.062392 137 208 245
1.637136 1.063004 0.508937 137 208 245
1.429201 1.254840 -1.096336 137 208 245
0.611613 1.327271 -1.429318 137 208 245
1.101628 1.484545 -0.655686 137 208 245
1.281007 1.297832 -1.058300 137 208 245
1.533207 0.798981 -1.333963 137 208 245
0.887798 0.797692 -1.614337 137 208 245
1.220438 0.707335 -1.531867 137 208 245
1.305416 1.588658 -0.228719 137 208 245
0.349074 2.059293 0.046099 137 208 245
0.983219 1.776531 0.384299 137 208 245
1.477116 1.260641 -0.232451 137 208 245
1.170868 1.821488 -0.310724 137 208 245
1.216834 1.271340 1.020094 137 208 245
1.515922 1.352522 0.699065 137 208 245
0 40 252 78 42
0 27 252 78 42
0 17 252 78 42
0 11 252 78 42
1 12 252 78 42
1 30 252 78 42
1 29 252 78 42
1 19 252 78 42
1 40 252 78 42
1 27 252 78 42
1 17 252 78 42
1 11 252 78 42
2 122 252 78 42
2 61 252 78 42
2 30 252 78 42
2 60 252 78 42
2 37 252 78 42
2 59 252 78 42
2 74 252 78 42
2 78 252 78 42
2 19 252 78 42
2 44 252 78 42
2 48 252 78 42
2 18 252 78 42
2 39 252 78 42
2 98 252 78 42
2 14 252 78 42
2 27 252 78 42
2 121 252 78 42
2 26 252 78 42
2 22 252 78 42
2 33 252 78 42
3 27 252 78 42
3 17 252 78 42
4 27 252 78 42
4 17 252 78 42
5 113 252 78 42
5 67 252 78 42
5 114 252 78 42
5 110 252 78 42
5 109 252 78 42
5 131 252 78 42
5 70 252 78 42
5 72 252 78 42
5 136 252 78 42
5 64 252 78 42
5 126 252 78 42
5 127 252 78 42
5 38 252 78 42
5 42 252 78 42
5 137 252 78 42
5 111 252 78 42
5 130 252 78 42
5 132 252 78 42
5 116 252 78 42
5 71 252 78 42
5 129 252 78 42
5 118 252 78 42
6 28 252 78 42
6 30 252 78 42
6 25 252 78 42
6 16 252 78 42
6 37 252 78 42
6 29 252 78 42
6 19 252 78 42
6 77 252 78 42
6 21 252 78 42
6 44 252 78 42
6 18 252 78 42
6 39 252 78 42
6 14 252 78 42
6 27 252 78 42
6 38 252 78 42
7 15 252 78 42
7 57 252 78 42
7 28 252 78 42
7 12 252 78 42
7 30 252 78 42
7 25 252 78 42
7 16 252 78 42
7 37 252 78 42
7 78 252 78 42
7 29 252 78 42
7 19 252 78 42
7 77 252 78 42
7 21 252 78 42
7 44 252 78 42
7 76 252 78 42
7 18 252 78 42
7 40 252 78 42
7 39 252 78 42
7 14 252 78 42
7 27 252 78 42
7 17 252 78 42
7 38 252 78 42
7 11 252 78 42
7 22 252 78 42
7 23 252 78 42
7 31 252 78 42
8 99 252 78 42
8 24 252 78 42
8 51 252 78 42
8 35 252 78 42
8 113 252 78 42
8 67 252 78 42
8 114 252 78 42
8 52 252 78 42
8 109 252 78 42
8 123 252 78 42
8 66 252 78 42
8 89 252 78 42
8 91 252 78 42
8 78 252 78 42
8 43 252 78 42
8 19 252 78 42
8 21 252 78 42
8 39 252 78 42
8 86 252 78 42
8 46 252 78 42
8 127 252 78 42
8 17 252 78 42
8 38 252 78 42
8 11 252 78 42
8 97 252 78 42
8 105 252 78 42
8 69 252 78 42
8 92 252 78 42
8 137 252 78 42
8 111 252 78 42
8 23 252 78 42
8 71 252 78 42
8 129 252 78 42
9 73 252 78 42
9 56 252 78 42
9 104 252 78 42
9 95 252 78 42
9 34 252 78 42
9 119 252 78 42
9 102 252 78 42
9 58 252 78 42
9 96 252 78 42
9 125 252 78 42
9 36 252 78 42
9 13 252 78 42
9 135 252 78 42
9 133 252 78 42
9 138 252 78 42
9 103 252 78 42
9 94 252 78 42
9 88 252 78 42
9 99 252 78 42
9 112 252 78 42
9 120 252 78 42
9 24 252 78 42
9 51 252 78 42
9 79 252 78 42
9 82 252 78 42
9 124 252 78 42
9 139 252 78 42
9 81 252 78 42
9 100 252 78 42
9 35 252 78 42
9 65 252 78 42
9 113 252 78 42
9 49 252 78 42
9 134 252 78 42
9 80 252 78 42
9 128 252 78 42
9 55 252 78 42
9 50 252 78 42
9 67 252 78 42
9 62 252 78 42
9 41 252 78 42
9 114 252 78 42
9 110 252 78 42
9 108 252 78 42
9 52 252 78 42
9 109 252 78 42
9 123 252 78 42
9 54 252 78 42
9 66 252 78 42
9 89 252 78 42
9 131 252 78 42
9 90 252 78 42
9 70 252 78 42
9 91 252 78 42
9 72 252 78 42
9 45 252 78 42
9 101 252 78 42
9 87 252 78 42
9 84 252 78 42
9 10 252 78 42
9 136 252 78 42
9 59 252 78 42
9 47 252 78 42
9 20 252 78 42
9 74 252 78 42
9 78 252 78 42
9 53 252 78 42
9 43 252 78 42
9 19 252 78 42
9 64 252 78 42
9 21 252 78 42
9 83 252 78 42
9 126 252 78 42
9 48 252 78 42
9 107 252 78 42
9 117 252 78 42
9 39 252 78 42
9 93 252 78 42
9 32 252 78 42
9 98 252 78 42
9 86 252 78 42
9 63 252 78 42
9 106 252 78 42
9 115 252 78 42
9 46 252 78 42
9 127 252 78 42
9 17 252 78 42
9 38 252 78 42
9 68 252 78 42
9 85 252 78 42
9 11 252 78 42
9 42 252 78 42
9 97 252 78 42
9 105 252 78 42
9 69 252 78 42
9 75 252 78 42
9 92 252 78 42
9 137 252 78 42
9 111 252 78 42
9 130 252 78 42
9 23 252 78 42
9 132 252 78 42
9 116 252 78 42
9 71 252 78 42
9 129 252 78 42
9 118 252 78 42
10 123 103 169 207
12 11 103 169 207
16 15 103 169 207
17 30 103 169 207
19 14 103 169 207
19 44 103 169 207
19 18 103 169 207
21 20 103 169 207
23 22 103 169 207
25 24 103 169 207
27 76 103 169 207
28 39 103 169 207
29 30 103 169 207
31 30 103 169 207
32 73 103 169 207
37 38 103 169 207
38 39 103 169 207
38 37 103 169 207
43 42 103 169 207
45 75 103 169 207
47 41 103 169 207
47 103 103 169 207
48 75 103 169 207
48 121 103 169 207
48 107 103 169 207
48 103 103 169 207
49 58 103 169 207
53 100 103 169 207
53 101 103 169 207
53 54 103 169 207
54 53 103 169 207
54 101 103 169 207
54 100 103 169 207
55 101 103 169 207
56 103 103 169 207
56 104 103 169 207
57 13 103 169 207
57 58 103 169 207
57 103 103 169 207
57 122 103 169 207
57 39 103 169 207
57 43 103 169 207
57 45 103 169 207
57 46 103 169 207
57 52 103 169 207
57 134 103 169 207
58 103 103 169 207
58 107 103 169 207
58 98 103 169 207
58 75 103 169 207
58 134 103 169 207
59 134 103 169 207
60 26 103 169 207
60 33 103 169 207
60 61 103 169 207
61 60 103 169 207
63 62 103 169 207
64 110 103 169 207
64 126 103 169 207
66 65 103 169 207
67 90 103 169 207
69 131 103 169 207
69 70 103 169 207
71 72 103 169 207
71 131 103 169 207
71 70 103 169 207
73 74 103 169 207
74 123 103 169 207
74 96 103 169 207
74 104 103 169 207
74 100 103 169 207
74 107 103 169 207
74 73 103 169 207
74 103 103 169 207
75 48 103 169 207
75 58 103 169 207
75 122 103 169 207
77 78 103 169 207
78 122 103 169 207
78 77 103 169 207
80 46 103 169 207
80 106 103 169 207
82 68 103 169 207
82 81 103 169 207
84 83 103 169 207
86 108 103 169 207
86 128 103 169 207
86 85 103 169 207
88 138 103 169 207
89 128 103 169 207
91 90 103 169 207
92 99 103 169 207
95 94 103 169 207
97 135 103 169 207
97 96 103 169 207
98 134 103 169 207
98 122 103 169 207
98 58 103 169 207
98 96 103 169 207
98 123 103 169 207
99 96 103 169 207
99 123 103 169 207
99 105 103 169 207
99 87 103 169 207
99 92 103 169 207
99 98 103 169 207
101 52 103 169 207
101 134 103 169 207
101 100 103 169 207
102 123 103 169 207
103 104 103 169 207
103 122 103 169 207
103 56 103 169 207
103 58 103 169 207
103 48 103 169 207
103 74 103 169 207
103 107 103 169 207
104 44 103 169 207
104 103 103 169 207
104 75 103 169 207
104 57 103 169 207
104 74 103 169 207
104 49 103 169 207
104 56 103 169 207
104 107 103 169 207
105 99 103 169 207
105 135 103 169 207
106 80 103 169 207
107 58 103 169 207
107 103 103 169 207
107 104 103 169 207
107 106 103 169 207
109 128 103 169 207
109 108 103 169 207
111 126 103 169 207
111 110 103 169 207
112 133 103 169 207
113 114 103 169 207
114 100 103 169 207
114 134 103 169 207
114 113 103 169 207
116 68 103 169 207
116 117 103 169 207
116 115 103 169 207
118 117 103 169 207
119 120 103 169 207
120 119 103 169 207
122 103 103 169 207
122 41 103 169 207
122 58 103 169 207
122 87 103 169 207
122 40 103 169 207
122 123 103 169 207
122 44 103 169 207
122 96 103 169 207
122 100 103 169 207
122 101 103 169 207
122 75 103 169 207
122 76 103 169 207
122 121 103 169 207
124 135 103 169 207
124 123 103 169 207
127 110 103 169 207
127 126 103 169 207
128 135 103 169 207
129 89 103 169 207
129 128 103 169 207
130 72 103 169 207
130 131 103 169 207
132 72 103 169 207
132 131 103 169 207
133 35 103 169 207
133 52 103 169 207
133 36 103 169 207
133 51 103 169 207
133 112 103 169 207
133 134 103 169 207
134 98 103 169 207
134 58 103 169 207
134 59 103 169 207
134 133 103 169 207
135 98 103 169 207
135 102 103 169 207
135 136 103 169 207
135 123 103 169 207
135 134 103 169 207
136 135 103 169 207
137 136 103 169 207
138 50 103 169 207
138 51 103 169 207
138 52 103 169 207
138 123 103 169 207
138 79 103 169 207
138 125 103 169 207
138 88 103 169 207
138 93 103 169 207
138 139 103 169 207
139 46 103 169 207
139 34 103 169 207
139 125 103 169 207
139 138 103 169 207
