ply
format ascii 1.0
element vertex 15
property float x
property float y
property float z
property uint8 red
property uint8 green
property uint8 blue
element edge 16
property int vertex1
property int vertex2
property uint8 red
property uint8 green
property uint8 blue
end_header
-0.897058 0.065440 0.083327 137 208 245
-0.949360 0.354811 0.072564 137 208 245
-0.816051 0.659502 -0.019971 137 208 245
-0.497343 0.779238 0.185557 137 208 245
-0.145196 1.061088 0.143346 137 208 245
0.232026 0.892017 -0.114757 137 208 245
0.321060 0.751402 0.260925 137 208 245
-0.178955 0.933039 -0.316096 137 208 245
0.437231 0.725215 0.684906 137 208 245
0.680119 0.756409 -0.112644 137 208 245
0.961879 0.453004 -0.197801 137 208 245
0.985864 0.000000 -0.401894 137 208 245
-0.561849 0.761073 -0.297491 137 208 245
0.483390 0.766886 -0.448451 137 208 245
0.666837 0.474745 -0.469479 137 208 245
0 1 132 132 132
1 2 132 132 132
2 3 132 132 132
3 4 132 132 132
5 6 132 132 132
5 7 132 132 132
5 4 132 132 132
5 9 132 132 132
6 8 132 132 132
7 12 132 132 132
9 10 132 132 132
10 11 132 132 132
12 2 132 132 132
13 5 132 132 132
13 14 132 132 132
14 11 132 132 132
