ply
format ascii 1.0
element vertex 15
property float x
property float y
property float z
property uint8 red
property uint8 green
property uint8 blue
element edge 16
property int vertex1
property int vertex2
property uint8 red
property uint8 green
property uint8 blue
end_header
-0.976317 0.071222 0.090689 137 208 245
-0.837412 0.312972 0.064007 137 208 245
-0.748011 0.604514 -0.018306 137 208 245
-0.566992 0.888364 0.211543 137 208 245
-0.115900 0.846992 0.114423 137 208 245
0.219342 0.843253 -0.108484 137 208 245
0.320007 0.748938 0.260069 137 208 245
-0.191168 0.996714 -0.337667 137 208 245
0.418303 0.693820 0.655256 137 208 245
0.592023 0.658431 -0.098053 137 208 245
0.757609 0.356801 -0.155795 137 208 245
0.978407 0.000000 -0.398854 137 208 245
-0.496657 0.672765 -0.262973 137 208 245
0.440606 0.699011 -0.408760 137 208 245
0.612528 0.436081 -0.431244 137 208 245
0 1 132 132 132
1 2 132 132 132
2 3 132 132 132
3 4 132 132 132
5 6 132 132 132
5 7 132 132 132
5 4 132 132 132
5 9 132 132 132
6 8 132 132 132
7 12 132 132 132
9 10 132 132 132
10 11 132 132 132
12 2 132 132 132
13 5 132 132 132
13 14 132 132 132
14 11 132 132 132
