ply
format ascii 1.0
element vertex 15
property float x
property float y
property float z
property uint8 red
property uint8 green
property uint8 blue
element edge 16
property int vertex1
property int vertex2
property uint8 red
property uint8 green
property uint8 blue
end_header
1.006951 1.876818 -0.920401 137 208 245
0.617879 1.668047 -1.186651 137 208 245
-0.672898 1.449619 -1.058863 137 208 245
1.255226 2.000000 0.081158 137 208 245
1.253665 1.341478 -0.627007 137 208 245
0.829742 1.167655 -1.036962 137 208 245
0.582446 0.000000 -1.284927 137 208 245
-0.234497 1.432898 -1.422417 137 208 245
0.456534 0.570461 -1.241590 137 208 245
0.334196 1.166955 -1.459882 137 208 245
-0.165423 0.822690 -1.374999 137 208 245
-0.689164 0.714565 -1.231978 137 208 245
-1.011126 1.030958 -0.900287 137 208 245
-1.408641 0.859783 -0.510698 137 208 245
-1.331423 0.772138 0.086084 137 208 245
0 3 132 132 132
1 0 132 132 132
1 9 132 132 132
2 12 132 132 132
4 3 132 132 132
5 4 132 132 132
7 2 132 132 132
8 6 132 132 132
9 5 132 132 132
9 10 132 132 132
9 7 132 132 132
9 8 132 132 132
11 10 132 132 132
12 11 132 132 132
13 12 132 132 132
14 13 132 132 132
