ply
format ascii 1.0
element vertex 15
property float x
property float y
property float z
property uint8 red
property uint8 green
property uint8 blue
element edge 16
property int vertex1
property int vertex2
property uint8 red
property uint8 green
property uint8 blue
end_header
1.635946 -0.280416 -1.151770 137 208 245
1.537727 0.636459 -1.426582 137 208 245
-1.750143 0.646635 -0.926676 137 208 245
1.557027 -1.261075 -0.634733 137 208 245
1.998293 -0.508648 -0.410930 137 208 245
2.077677 0.543584 -0.344112 137 208 245
1.170933 0.240145 1.834222 137 208 245
-0.648346 1.504831 -1.145198 137 208 245
1.379517 1.271523 1.121130 137 208 245
0.956108 1.724138 -0.472880 137 208 245
-0.558745 1.985548 0.551626 137 208 245
-1.643463 0.881964 0.613171 137 208 245
-2.078430 0.095033 -0.050865 137 208 245
-1.882880 -0.631794 0.143916 137 208 245
-1.745494 -1.159054 0.162138 137 208 245
0 3 132 132 132
1 0 132 132 132
1 9 132 132 132
2 12 132 132 132
4 3 132 132 132
5 4 132 132 132
7 2 132 132 132
8 6 132 132 132
9 5 132 132 132
9 10 132 132 132
9 7 132 132 132
9 8 132 132 132
11 10 132 132 132
12 11 132 132 132
13 12 132 132 132
14 13 132 132 132
