ply
format ascii 1.0
element vertex 15
property float x
property float y
property float z
property uint8 red
property uint8 green
property uint8 blue
element edge 16
property int vertex1
property int vertex2
property uint8 red
property uint8 green
property uint8 blue
end_header
-1.951621 0.142369 0.181285 137 208 245
-2.027010 0.757568 0.154933 137 208 245
-1.521970 1.229999 -0.037247 137 208 245
-1.149305 1.800733 0.428802 137 208 245
-0.289360 2.114636 0.285673 137 208 245
0.538109 2.068747 -0.266143 137 208 245
0.782872 1.832217 0.636238 137 208 245
-0.380053 1.981521 -0.671301 137 208 245
0.870895 1.444513 1.364224 137 208 245
1.416381 1.575258 -0.234586 137 208 245
1.906302 0.897786 -0.392013 137 208 245
1.974416 0.000000 -0.804884 137 208 245
-1.166998 1.580799 -0.617909 137 208 245
0.991933 1.573678 -0.920238 137 208 245
1.425227 1.014670 -1.003416 137 208 245
0 1 132 132 132
1 2 132 132 132
2 3 132 132 132
3 4 132 132 132
5 6 132 132 132
5 7 132 132 132
5 4 132 132 132
5 9 132 132 132
6 8 132 132 132
7 12 132 132 132
9 10 132 132 132
10 11 132 132 132
12 2 132 132 132
13 5 132 132 132
13 14 132 132 132
14 11 132 132 132
