ply
format ascii 1.0
element vertex 15
property float x
property float y
property float z
property uint8 red
property uint8 green
property uint8 blue
element edge 16
property int vertex1
property int vertex2
property uint8 red
property uint8 green
property uint8 blue
end_header
0.641282 0.456552 -0.451488 137 208 245
0.435928 0.691589 -0.404420 137 208 245
-0.515253 0.697954 -0.272819 137 208 245
0.878217 0.000000 -0.358011 137 208 245
0.950229 0.447517 -0.195406 137 208 245
0.723482 0.804636 -0.119826 137 208 245
0.425557 0.705852 0.666619 137 208 245
-0.186539 0.972580 -0.329491 137 208 245
0.357593 0.836904 0.290615 137 208 245
0.257100 0.988416 -0.127159 137 208 245
-0.119577 0.873867 0.118054 137 208 245
-0.555907 0.870996 0.207407 137 208 245
-0.745241 0.602275 -0.018238 137 208 245
-0.872826 0.326207 0.066714 137 208 245
-1.019532 0.074374 0.094704 137 208 245
0 3 132 132 132
1 0 132 132 132
1 9 132 132 132
2 12 132 132 132
4 3 132 132 132
5 4 132 132 132
7 2 132 132 132
8 6 132 132 132
9 5 132 132 132
9 10 132 132 132
9 7 132 132 132
9 8 132 132 132
11 10 132 132 132
12 11 132 132 132
13 12 132 132 132
14 13 132 132 132
