ply
format ascii 1.0
element vertex 15
property float x
property float y
property float z
property uint8 red
property uint8 green
property uint8 blue
element edge 16
property int vertex1
property int vertex2
property uint8 red
property uint8 green
property uint8 blue
end_header
-0.773762 -0.513799 0.071874 137 208 245
-0.851570 -0.285741 0.065089 137 208 245
-0.963978 0.044076 -0.023591 137 208 245
-0.857347 0.460095 0.319873 137 208 245
-0.242967 0.863403 0.239871 137 208 245
0.448887 0.809473 -0.222014 137 208 245
0.565168 0.520924 0.459311 137 208 245
-0.283368 0.657706 -0.500524 137 208 245
0.563587 0.115585 0.882838 137 208 245
0.982298 0.256999 -0.162692 137 208 245
0.815711 -0.207632 -0.167743 137 208 245
0.695907 -0.563633 -0.283691 137 208 245
-0.919742 0.339822 -0.486990 137 208 245
0.639602 0.264729 -0.593373 137 208 245
0.750999 -0.128728 -0.528733 137 208 245
0 1 132 132 132
1 2 132 132 132
2 3 132 132 132
3 4 132 132 132
5 6 132 132 132
5 7 132 132 132
5 4 132 132 132
5 9 132 132 132
6 8 132 132 132
7 12 132 132 132
9 10 132 132 132
10 11 132 132 132
12 2 132 132 132
13 5 132 132 132
13 14 132 132 132
14 11 132 132 132
