ply
format ascii 1.0
element vertex 15
property float x
property float y
property float z
property uint8 red
property uint8 green
property uint8 blue
element edge 16
property int vertex1
property int vertex2
property uint8 red
property uint8 green
property uint8 blue
end_header
-0.464769 -0.805452 0.043172 137 208 245
-0.567593 -0.688266 0.043383 137 208 245
-0.699866 -0.485605 -0.017128 137 208 245
-0.872423 -0.196449 0.325498 137 208 245
-0.497855 0.784606 0.491512 137 208 245
0.741617 0.492244 -0.366795 137 208 245
0.826138 -0.029813 0.671400 137 208 245
-0.462461 0.272281 -0.816862 137 208 245
0.466446 -0.534516 0.730671 137 208 245
0.960351 -0.439932 -0.159057 137 208 245
0.585599 -0.648440 -0.120423 137 208 245
0.384490 -0.778520 -0.156740 137 208 245
-0.728590 -0.313947 -0.385778 137 208 245
0.615497 -0.339592 -0.571010 137 208 245
0.581750 -0.663462 -0.409575 137 208 245
0 1 132 132 132
1 2 132 132 132
2 3 132 132 132
3 4 132 132 132
5 6 132 132 132
5 7 132 132 132
5 4 132 132 132
5 9 132 132 132
6 8 132 132 132
7 12 132 132 132
9 10 132 132 132
10 11 132 132 132
12 2 132 132 132
13 5 132 132 132
13 14 132 132 132
14 11 132 132 132
