ply
format ascii 1.0
element vertex 15
property float x
property float y
property float z
property uint8 red
property uint8 green
property uint8 blue
element edge 16
property int vertex1
property int vertex2
property uint8 red
property uint8 green
property uint8 blue
end_header
1.386949 0.987419 -0.976467 137 208 245
1.039679 1.649426 -0.964533 137 208 245
-1.245398 1.686999 -0.659421 137 208 245
2.035428 0.000000 -0.829756 137 208 245
1.774455 0.835692 -0.364900 137 208 245
1.351232 1.502802 -0.223796 137 208 245
0.865770 1.436012 1.356196 137 208 245
-0.362592 1.890488 -0.640460 137 208 245
0.753220 1.762820 0.612140 137 208 245
0.544199 2.092159 -0.269154 137 208 245
-0.294268 2.150507 0.290519 137 208 245
-1.135695 1.779409 0.423724 137 208 245
-1.619100 1.308495 -0.039624 137 208 245
-2.036295 0.761038 0.155642 137 208 245
-2.025344 0.147747 0.188133 137 208 245
0 3 132 132 132
1 0 132 132 132
1 9 132 132 132
2 12 132 132 132
4 3 132 132 132
5 4 132 132 132
7 2 132 132 132
8 6 132 132 132
9 5 132 132 132
9 10 132 132 132
9 7 132 132 132
9 8 132 132 132
11 10 132 132 132
12 11 132 132 132
13 12 132 132 132
14 13 132 132 132
