ply
format ascii 1.0
element vertex 15
property float x
property float y
property float z
property uint8 red
property uint8 green
property uint8 blue
element edge 16
property int vertex1
property int vertex2
property uint8 red
property uint8 green
property uint8 blue
end_header
1.423012 1.013094 -1.001857 137 208 245
1.005238 1.594786 -0.932581 137 208 245
-1.119318 1.516212 -0.592663 137 208 245
1.947813 0.000000 -0.794039 137 208 245
1.936055 0.911798 -0.398132 137 208 245
1.301599 1.447601 -0.215576 137 208 245
0.863638 1.432476 1.352856 137 208 245
-0.392926 2.048640 -0.694039 137 208 245
0.744362 1.742089 0.604941 137 208 245
0.519046 1.995459 -0.256714 137 208 245
-0.287796 2.103212 0.284130 137 208 245
-1.081236 1.694082 0.403406 137 208 245
-1.710295 1.382195 -0.041856 137 208 245
-2.000173 0.747538 0.152881 137 208 245
-2.033684 0.148356 0.188908 137 208 245
0 3 132 132 132
1 0 132 132 132
1 9 132 132 132
2 12 132 132 132
4 3 132 132 132
5 4 132 132 132
7 2 132 132 132
8 6 132 132 132
9 5 132 132 132
9 10 132 132 132
9 7 132 132 132
9 8 132 132 132
11 10 132 132 132
12 11 132 132 132
13 12 132 132 132
14 13 132 132 132
