ply
format ascii 1.0
element vertex 15
property float x
property float y
property float z
property uint8 red
property uint8 green
property uint8 blue
element edge 16
property int vertex1
property int vertex2
property uint8 red
property uint8 green
property uint8 blue
end_header
-1.036802 -1.796794 0.096308 137 208 245
-1.314365 -1.593804 0.100462 137 208 245
-1.642135 -1.139402 -0.040188 137 208 245
-1.945222 -0.438019 0.725756 137 208 245
-1.006466 1.586165 0.993643 137 208 245
1.562588 1.037160 -0.772838 137 208 245
1.640460 -0.059200 1.333198 137 208 245
-1.020431 0.600794 -1.802424 137 208 245
0.906217 -1.038462 1.419554 137 208 245
1.822533 -0.834892 -0.301855 137 208 245
1.434933 -1.588916 -0.295081 137 208 245
0.918760 -1.860316 -0.374539 137 208 245
-1.728794 -0.744933 -0.915372 137 208 245
1.475478 -0.814074 -1.368832 137 208 245
1.239721 -1.413851 -0.872812 137 208 245
0 1 132 132 132
1 2 132 132 132
2 3 132 132 132
3 4 132 132 132
5 6 132 132 132
5 7 132 132 132
5 4 132 132 132
5 9 132 132 132
6 8 132 132 132
7 12 132 132 132
9 10 132 132 132
10 11 132 132 132
12 2 132 132 132
13 5 132 132 132
13 14 132 132 132
14 11 132 132 132
