ply
format ascii 1.0
element vertex 15
property float x
property float y
property float z
property uint8 red
property uint8 green
property uint8 blue
element edge 16
property int vertex1
property int vertex2
property uint8 red
property uint8 green
property uint8 blue
end_header
-0.899550 0.065621 0.083559 137 208 245
-0.824330 0.308082 0.063007 137 208 245
-0.722742 0.584092 -0.017688 137 208 245
-0.570223 0.893426 0.212748 137 208 245
-0.120903 0.883558 0.119363 137 208 245
0.226976 0.872603 -0.112260 137 208 245
0.370079 0.866125 0.300762 137 208 245
-0.160189 0.835197 -0.282948 137 208 245
0.373449 0.619422 0.584993 137 208 245
0.583100 0.648507 -0.096575 137 208 245
0.798110 0.375875 -0.164124 137 208 245
0.954075 0.000000 -0.388935 137 208 245
-0.538714 0.729734 -0.285241 137 208 245
0.420086 0.666457 -0.389723 137 208 245
0.724847 0.516045 -0.510321 137 208 245
0 1 132 132 132
1 2 132 132 132
2 3 132 132 132
3 4 132 132 132
5 6 132 132 132
5 7 132 132 132
5 4 132 132 132
5 9 132 132 132
6 8 132 132 132
7 12 132 132 132
9 10 132 132 132
10 11 132 132 132
12 2 132 132 132
13 5 132 132 132
13 14 132 132 132
14 11 132 132 132
