ply
format ascii 1.0
element vertex 15
property float x
property float y
property float z
property uint8 red
property uint8 green
property uint8 blue
element edge 16
property int vertex1
property int vertex2
property uint8 red
property uint8 green
property uint8 blue
end_header
1.101400 1.876818 -1.733194 137 208 245
0.661786 1.668047 -1.949131 137 208 245
-0.822223 1.449619 -2.023354 137 208 245
1.909073 2.000000 -0.935827 137 208 245
1.493489 1.341478 -1.587806 137 208 245
0.867423 1.167655 -1.750255 137 208 245
0.611058 0.000000 -2.046399 137 208 245
-0.235830 1.432898 -2.108185 137 208 245
0.502427 0.570461 -2.050940 137 208 245
0.308129 1.166955 -1.992389 137 208 245
-0.176101 0.822690 -2.152372 137 208 245
-0.716388 0.714565 -1.976367 137 208 245
-1.115873 1.030958 -1.721936 137 208 245
-1.553210 0.859783 -1.409531 137 208 245
-1.847957 0.772138 -0.905868 137 208 245
0 3 132 132 132
1 0 132 132 132
1 9 132 132 132
2 12 132 132 132
4 3 132 132 132
5 4 132 132 132
7 2 132 132 132
8 6 132 132 132
9 5 132 132 132
9 10 132 132 132
9 7 132 132 132
9 8 132 132 132
11 10 132 132 132
12 11 132 132 132
13 12 132 132 132
14 13 132 132 132
