ply
format ascii 1.0
element vertex 27
property float x
property float y
property float z
property uint8 red
property uint8 green
property uint8 blue
element edge 129
property int vertex1
property int vertex2
property uint8 red
property uint8 green
property uint8 blue
end_header
1.018938 0.037955 0.223632 252 187 161
0.804562 0.193129 -0.343742 252 187 161
0.563360 0.746540 -0.231385 252 187 161
0.906743 0.000000 0.075212 252 187 161
0.814634 0.284347 0.388388 252 187 161
0.913621 0.097350 -0.292204 252 187 161
0.706486 0.807690 0.216544 252 187 161
0.875022 0.044412 -0.142591 252 187 161
0.886574 0.156643 0.351195 252 187 161
0.726228 0.661559 -0.312873 252 187 161
0.744041 0.618557 0.312940 252 187 161
0.812886 0.322777 -0.004278 252 187 161
0.811365 0.464377 0.424467 252 187 161
0.774019 0.354013 -0.381516 252 187 161
0.604421 0.568660 0.343198 252 187 161
0.783647 0.519989 -0.396917 252 187 161
0.747438 0.714916 0.025529 252 187 161
-0.812977 0.395080 -0.066506 198 219 239
-0.989067 0.006100 -0.059448 198 219 239
-0.973917 0.177499 0.208460 198 219 239
-0.876195 0.306662 -0.138338 198 219 239
-0.960561 0.008025 0.138840 198 219 239
-0.967471 0.104734 -0.120788 198 219 239
-0.943356 0.507684 0.036654 198 219 239
-0.947691 0.357536 0.210469 198 219 239
-0.994891 0.000411 0.077398 198 219 239
-0.892687 0.415210 0.110842 198 219 239
0 16 153 0 13
0 1 153 0 13
0 5 153 0 13
0 7 153 0 13
0 11 153 0 13
0 12 153 0 13
0 0 153 0 13
1 16 153 0 13
1 1 153 0 13
1 5 153 0 13
1 7 153 0 13
1 11 153 0 13
1 12 153 0 13
1 0 153 0 13
2 16 153 0 13
3 16 153 0 13
3 1 153 0 13
3 5 153 0 13
3 7 153 0 13
3 11 153 0 13
3 12 153 0 13
3 0 153 0 13
4 16 153 0 13
4 1 153 0 13
4 5 153 0 13
4 7 153 0 13
4 11 153 0 13
4 12 153 0 13
4 0 153 0 13
5 16 153 0 13
5 1 153 0 13
5 5 153 0 13
5 7 153 0 13
5 11 153 0 13
5 12 153 0 13
5 0 153 0 13
6 16 153 0 13
6 11 153 0 13
7 16 153 0 13
7 1 153 0 13
7 5 153 0 13
7 7 153 0 13
7 11 153 0 13
7 12 153 0 13
7 0 153 0 13
8 16 153 0 13
8 1 153 0 13
8 0 153 0 13
9 16 153 0 13
9 1 153 0 13
9 5 153 0 13
9 7 153 0 13
9 11 153 0 13
9 12 153 0 13
9 0 153 0 13
10 16 153 0 13
10 1 153 0 13
10 3 153 0 13
10 5 153 0 13
10 7 153 0 13
10 9 153 0 13
10 11 153 0 13
10 12 153 0 13
10 14 153 0 13
10 0 153 0 13
11 16 153 0 13
11 1 153 0 13
12 16 153 0 13
12 1 153 0 13
12 5 153 0 13
12 7 153 0 13
12 11 153 0 13
12 12 153 0 13
12 0 153 0 13
13 16 153 0 13
13 1 153 0 13
13 5 153 0 13
13 7 153 0 13
13 11 153 0 13
13 0 153 0 13
15 7 153 0 13
15 0 153 0 13
15 16 153 0 13
15 1 153 0 13
16 16 153 0 13
16 1 153 0 13
16 5 153 0 13
16 7 153 0 13
16 11 153 0 13
16 12 153 0 13
16 0 153 0 13
17 23 8 69 148
17 20 8 69 148
17 19 8 69 148
18 20 8 69 148
18 25 8 69 148
18 17 8 69 148
18 19 8 69 148
18 23 8 69 148
19 20 8 69 148
19 24 8 69 148
19 25 8 69 148
19 17 8 69 148
19 19 8 69 148
19 23 8 69 148
20 20 8 69 148
20 25 8 69 148
20 17 8 69 148
20 19 8 69 148
20 23 8 69 148
21 19 8 69 148
21 23 8 69 148
22 20 8 69 148
22 19 8 69 148
22 23 8 69 148
23 16 132 132 132
23 23 8 69 148
23 20 8 69 148
23 25 8 69 148
23 17 8 69 148
23 19 8 69 148
25 19 8 69 148
26 23 8 69 148
26 26 8 69 148
26 20 8 69 148
26 24 8 69 148
26 25 8 69 148
26 17 8 69 148
26 19 8 69 148
