ply
format ascii 1.0
element vertex 4
property float x
property float y
property float z
property uint8 red
property uint8 green
property uint8 blue
element edge 6
property int vertex1
property int vertex2
property uint8 red
property uint8 green
property uint8 blue
end_header
1.473239 2.000000 -1.288287 137 208 245
-0.909037 1.960000 -1.960899 137 208 245
1.315131 0.060000 -1.511895 137 208 245
-1.542479 -0.000000 -1.348835 137 208 245
0 3 132 132 132
1 3 132 132 132
1 0 132 132 132
2 3 132 132 132
2 0 132 132 132
2 1 132 132 132
