ply
format ascii 1.0
element vertex 27
property float x
property float y
property float z
property uint8 red
property uint8 green
property uint8 blue
element edge 21
property int vertex1
property int vertex2
property uint8 red
property uint8 green
property uint8 blue
end_header
-0.918003 1.411952 -1.986209 255 255 255
0.876541 1.570095 -1.912862 255 255 255
-0.004248 0.000000 -2.126845 255 255 255
0.367915 0.437393 -1.958144 255 255 255
-0.922814 2.000000 -1.996618 255 255 255
0.372624 0.224299 -1.983207 255 255 255
-0.005331 1.409191 -2.122719 255 255 255
-0.005278 0.774209 -2.101543 255 255 255
1.228851 0.437393 -1.587209 255 255 255
0.411430 1.105504 -1.983283 255 255 255
1.602552 0.774209 -1.199210 255 255 255
1.626514 1.570095 -1.394238 255 255 255
1.108766 1.090715 -1.843847 255 255 255
-0.242218 0.437393 -2.065995 255 255 255
-1.587669 0.774209 -1.188073 255 255 255
-1.314894 0.444886 -1.595740 255 255 255
-0.464768 1.723921 -2.034123 255 255 255
0.887927 0.774209 -1.889924 255 255 255
-0.907282 0.774209 -1.822948 255 255 255
-0.515743 0.437393 -1.921112 255 255 255
-1.307324 0.774209 -1.586589 255 255 255
-0.400214 0.774209 -2.089529 255 255 255
1.236014 0.774209 -1.598947 255 255 255
-0.004982 1.105929 -1.983804 255 255 255
-0.915820 1.725220 -1.981484 255 255 255
-0.004399 0.229047 -2.063229 255 255 255
0.385181 0.774209 -2.022063 255 255 255
0 4 0 0 0
0 6 0 0 0
1 11 0 0 0
3 26 0 0 0
5 25 0 0 0
6 0 0 0 0
6 7 0 0 0
7 2 0 0 0
7 17 0 0 0
7 18 0 0 0
7 12 0 0 0
8 22 0 0 0
9 23 0 0 0
12 1 0 0 0
13 21 0 0 0
15 20 0 0 0
16 24 0 0 0
17 1 0 0 0
17 10 0 0 0
18 14 0 0 0
19 21 0 0 0
