ply
format ascii 1.0
element vertex 27
property float x
property float y
property float z
property uint8 red
property uint8 green
property uint8 blue
element edge 21
property int vertex1
property int vertex2
property uint8 red
property uint8 green
property uint8 blue
end_header
-0.808394 0.649613 -0.349635 255 255 255
0.649589 0.502273 -0.391757 255 255 255
-0.003006 0.536429 0.684128 255 255 255
0.318979 0.710254 0.439214 255 255 255
-0.693489 0.410180 -0.728091 255 255 255
0.344125 0.707801 0.653309 255 255 255
-0.005503 0.982713 -0.407544 255 255 255
-0.004949 0.909096 0.202227 255 255 255
0.834947 0.253030 0.324095 255 255 255
0.411196 0.891328 -0.096405 255 255 255
1.048874 0.000000 0.115953 255 255 255
0.899326 0.034609 -0.270311 255 255 255
0.764510 0.436619 -0.058226 255 255 255
-0.213755 0.777884 0.468380 255 255 255
-0.855425 0.000000 0.094567 255 255 255
-0.886609 0.229827 0.324596 255 255 255
-0.349213 0.593930 -0.511554 255 255 255
0.722250 0.588880 0.168769 255 255 255
-0.675155 0.507622 0.150047 255 255 255
-0.431031 0.649453 0.420272 255 255 255
-0.863230 0.259408 0.128549 255 255 255
-0.422904 0.988214 0.229355 255 255 255
1.015868 0.354368 0.158434 255 255 255
-0.005816 1.078545 -0.111495 255 255 255
-0.663152 0.472548 -0.504927 255 255 255
-0.004335 0.815842 0.712474 255 255 255
0.417204 0.980563 0.227475 255 255 255
0 4 0 0 0
0 6 0 0 0
1 11 0 0 0
3 26 0 0 0
5 25 0 0 0
6 0 0 0 0
6 7 0 0 0
7 2 0 0 0
7 17 0 0 0
7 18 0 0 0
7 12 0 0 0
8 22 0 0 0
9 23 0 0 0
12 1 0 0 0
13 21 0 0 0
15 20 0 0 0
16 24 0 0 0
17 1 0 0 0
17 10 0 0 0
18 14 0 0 0
19 21 0 0 0
