ply
format ascii 1.0
element vertex 13
property float x
property float y
property float z
property uint8 red
property uint8 green
property uint8 blue
element edge 13
property int vertex1
property int vertex2
property uint8 red
property uint8 green
property uint8 blue
end_header
-0.179629 0.660847 -0.627435 137 208 245
0.239213 0.790189 -0.354788 137 208 245
-0.040696 0.976322 0.162786 137 208 245
0.341630 0.693068 0.455507 137 208 245
-0.257310 0.626992 0.567524 137 208 245
-0.625000 0.357014 0.737632 137 208 245
-0.768023 0.411654 0.310613 137 208 245
-0.503091 0.000000 0.699119 137 208 245
-0.605004 0.788266 0.073850 137 208 245
0.779529 0.693173 -0.201169 137 208 245
0.404944 0.470985 -0.719398 137 208 245
0.258731 0.184716 -1.007272 137 208 245
0.650671 0.152372 -0.691449 137 208 245
0 1 132 132 132
1 10 132 132 132
1 2 132 132 132
2 3 132 132 132
2 4 132 132 132
2 8 132 132 132
4 5 132 132 132
5 6 132 132 132
5 7 132 132 132
6 8 132 132 132
9 1 132 132 132
10 11 132 132 132
10 12 132 132 132
